Coordinates
version=1
nRows=12
nColumns=24
inDegrees=yes

Units are S.I. units (second, meters, Newtons, ...)
Angles are in degrees.

endheader
time	pelvis_tilt	pelvis_list	pelvis_rotation	pelvis_tx	pelvis_ty	pelvis_tz	hip_flexion_r	hip_adduction_r	hip_rotation_r	knee_angle_r	ankle_angle_r	subtalar_angle_r	mtp_angle_r	hip_flexion_l	hip_adduction_l	hip_rotation_l	knee_angle_l	ankle_angle_l	subtalar_angle_l	mtp_angle_l	lumbar_extension	lumbar_bending	lumbar_rotation
      0.45400000	     -0.59397212	      4.61200112	      3.09416818	     -0.78506066	      0.98018793	      0.29209061	     27.80151189	     -3.35202073	     -2.85818988	    -13.64079008	      8.24609732	     -5.47046777	      0.42062380	    -15.26918963	      8.57320658	      3.37459784	     -5.96090930	     11.21201789	     -3.23527474	      0.22308337	     -1.93459205	     -2.84281871	     -1.46220567
      0.45816667	     -0.67779257	      4.63773098	      3.14399319	     -0.77898746	      0.97941388	      0.29226029	     27.74858384	     -3.31218689	     -2.91833018	    -13.60035720	      8.08134490	     -5.34496019	      0.59241847	    -15.11006876	      8.55272043	      3.16761217	     -6.83795175	     11.38582737	     -2.79945018	      0.22303424	     -1.77325354	     -2.87828044	     -1.48992850
      0.46233333	     -0.72268403	      4.63718718	      3.18235586	     -0.77286604	      0.97872974	      0.29243943	     27.64643850	     -3.24056734	     -2.96320518	    -13.61713950	      7.87978532	     -5.27140761	      0.78182872	    -14.95719434	      8.50193402	      2.92200172	     -7.78514715	     11.59293539	     -2.33054096	      0.25272009	     -1.66536576	     -2.87137654	     -1.55144817
      0.46650000	     -0.73580369	      4.63396277	      3.19499916	     -0.76671132	      0.97810741	      0.29266985	     27.51454411	     -3.15152289	     -2.96660717	    -13.70373683	      7.69857925	     -5.28625269	      1.14355494	    -14.80881030	      8.44579162	      2.60684613	     -8.78135056	     11.80241607	     -1.82946396	      0.35266949	     -1.58246771	     -2.86062670	     -1.58790823
      0.47066667	     -0.79544472	      4.62401302	      3.21315941	     -0.76052240	      0.97744987	      0.29288267	     27.43852869	     -3.06416043	     -2.97727425	    -13.85569520	      7.39704706	     -5.28385241	      1.42487806	    -14.58928243	      8.38553926	      2.33163204	     -9.81348046	     11.88120960	     -1.41322435	      0.47343115	     -1.43609445	     -2.84132486	     -1.63506077
      0.47483333	     -0.82028075	      4.59540958	      3.24612913	     -0.75431068	      0.97690556	      0.29310447	     27.29307187	     -2.95705316	     -2.95083469	    -13.99707467	      7.04024007	     -5.40414848	      1.89709808	    -14.37001271	      8.29496726	      2.08225166	    -10.91817152	     12.00090653	     -0.98376863	      0.74074792	     -1.33897852	     -2.80163345	     -1.64882905
      0.47900000	     -0.89881911	      4.57801765	      3.24841423	     -0.74808005	      0.97628858	      0.29334975	     27.24178348	     -2.85596639	     -2.90099334	    -14.24766910	      6.67219234	     -5.47051759	      2.18436423	    -14.07361017	      8.22932876	      1.82565523	    -12.04986499	     11.96447318	     -0.64992458	      0.94855298	     -1.16335131	     -2.77493291	     -1.68081988
      0.48316667	     -0.86523400	      4.51292401	      3.22624544	     -0.74179759	      0.97589479	      0.29367474	     27.00761234	     -2.67693259	     -2.73735450	    -14.39803582	      6.10799789	     -5.80143564	      3.36025555	    -13.87708790	      8.09891311	      1.52529757	    -13.20185023	     11.92247976	     -0.28787913	      1.98487816	     -1.12851125	     -2.68674186	     -1.65163716
      0.48733333	     -0.97893698	      4.50936397	      3.26568125	     -0.73555768	      0.97532508	      0.29384877	     27.00416485	     -2.62274669	     -2.73929234	    -14.74532644	      5.71446590	     -5.77578043	      3.47054405	    -13.49653740	      8.05376377	      1.45527012	    -14.41175717	     11.72983843	     -0.16945256	      2.11344511	     -0.90373322	     -2.67934362	     -1.65570957
      0.49150000	     -1.02697282	      4.45319630	      3.24289922	     -0.72929636	      0.97483292	      0.29417496	     26.93127072	     -2.47195691	     -2.62048296	    -15.11154914	      5.30511900	     -6.03430656	      3.68153095	    -13.11855515	      7.93211922	      1.14114579	    -15.73201846	     11.60738059	      0.21287484	      2.41668890	     -0.76902772	     -2.60120116	     -1.66087241
      0.49566667	     -1.08327478	      4.39084159	      3.22908421	     -0.72304032	      0.97439762	      0.29449128	     26.85049028	     -2.31789310	     -2.46890312	    -15.45992897	      4.81731056	     -6.35439959	      3.91360841	    -12.70528702	      7.80768421	      0.91477543	    -17.08603854	     11.36995181	      0.46258701	      2.82281449	     -0.62046218	     -2.51897589	     -1.62775496
      0.49983333	     -1.11459199	      4.31790567	      3.21988285	     -0.71673375	      0.97404782	      0.29475078	     26.75256762	     -2.17522486	     -2.40882094	    -15.84665555	      4.27842620	     -6.44881863	      3.98711636	    -12.32417100	      7.68684802	      0.81877075	    -18.41356980	     10.92128956	      0.48922318	      2.98559882	     -0.49798718	     -2.39867401	     -1.58319119
